<svg xmlns="http://www.w3.org/2000/svg" xmlns:v="https://svgstorm.com"
viewBox = "0 0 1668 872"
width="1668"
height="872">
<g fill="None" fill-opacity="0.0" stroke="#000000" stroke-opacity="0.00" stroke-width="0.3"><path d="
M 0.00 872.00 
L 1668.00 872.00
L 1668.00 0.00
L 0.00 0.00
L 0.00 872.00
M 1608.00 157.00 
C 1555.80 170.78 1503.25 183.37 1451.00 197.00
C 1445.79 186.38 1440.23 177.39 1430.75 169.25 C 1421.27 161.11 1412.15 156.22 1399.93 152.07 C 1387.70 147.93 1372.75 145.83 1359.00 145.00 C 1345.25 144.17 1328.46 146.40 1315.78 149.78 C 1303.09 153.15 1293.36 160.73 1292.00 174.00 C 1290.64 187.27 1298.91 196.06 1311.08 200.92 C 1323.24 205.78 1335.89 208.64 1349.00 211.00 C 1362.12 213.36 1376.01 216.46 1389.22 218.78 C 1402.43 221.10 1416.64 223.67 1429.67 226.33 C 1442.70 228.99 1456.28 232.11 1469.02 234.98 C 1481.76 237.84 1494.95 241.35 1507.07 244.93 C 1519.20 248.50 1531.20 252.25 1542.08 257.92 C 1552.95 263.60 1561.83 269.29 1571.25 276.75 C 1580.66 284.21 1587.36 291.59 1595.30 300.70 C 1603.25 309.80 1608.73 318.71 1613.92 330.08 C 1619.12 341.44 1622.64 354.86 1624.00 368.00 C 1625.36 381.14 1625.48 400.15 1623.00 413.00 C 1620.52 425.85 1615.52 436.93 1610.23 448.23 C 1604.93 459.53 1598.50 467.29 1590.75 476.75 C 1583.00 486.21 1574.82 492.97 1565.30 500.30 C 1555.79 507.63 1547.05 513.61 1536.31 519.31 C 1525.56 525.00 1515.65 530.59 1503.78 534.78 C 1491.90 538.96 1480.61 543.66 1467.78 546.78 C 1454.94 549.89 1441.44 552.53 1427.78 554.78 C 1414.12 557.03 1398.42 557.90 1384.00 559.00 C 1369.58 560.10 1351.82 560.20 1337.00 560.00 C 1322.18 559.80 1306.11 558.52 1291.99 557.01 C 1277.88 555.50 1263.19 553.71 1250.00 551.00 C 1236.80 548.29 1224.51 544.47 1212.32 540.68 C 1200.14 536.89 1189.36 531.89 1178.31 526.70 C 1167.25 521.50 1157.97 515.33 1148.25 508.75 C 1138.54 502.16 1130.60 494.99 1122.25 486.75 C 1113.89 478.51 1106.66 469.96 1100.23 460.77 C 1093.80 451.58 1086.79 440.24 1082.69 430.31 C 1078.60 420.37 1065.38 402.81 1080.22 401.22 C 1095.06 399.63 1107.76 397.15 1122.02 395.02 C 1136.29 392.90 1149.91 391.21 1164.00 389.00 C 1178.09 386.80 1191.56 384.75 1205.67 382.67 C 1219.78 380.59 1233.96 378.48 1248.00 376.00
C 1255.15 396.92 1269.18 413.37 1289.23 423.77 C 1309.28 434.17 1342.19 440.20 1365.00 438.00 C 1387.81 435.80 1422.23 440.09 1430.93 413.93 C 1439.62 387.76 1406.95 376.38 1385.99 372.01 C 1365.03 367.64 1333.11 361.56 1310.33 357.67 C 1287.54 353.78 1260.20 346.44 1237.93 340.07 C 1215.65 333.70 1193.16 325.99 1172.92 315.08 C 1152.69 304.16 1140.18 291.43 1126.23 272.77 C 1112.28 254.11 1104.03 230.07 1103.00 206.00 C 1101.97 181.93 1107.48 152.39 1119.31 132.31 C 1131.13 112.22 1142.45 99.14 1160.75 84.75 C 1179.05 70.35 1195.64 60.31 1218.07 52.07 C 1240.51 43.84 1265.23 37.26 1290.22 34.22 C 1315.21 31.19 1350.05 29.17 1376.00 30.00 C 1401.95 30.83 1431.22 34.81 1455.02 39.98 C 1478.82 45.14 1500.44 53.42 1520.75 64.25 C 1541.05 75.09 1556.48 86.33 1572.25 102.75 C 1588.02 119.17 1599.49 136.78 1608.00 157.00
M 1592.00 32.00 
C 1593.63 37.50 1587.25 35.78 1584.00 36.00
C 1584.00 45.33 1584.00 54.67 1584.00 64.00
C 1576.83 65.55 1579.25 58.05 1579.00 53.00 C 1578.75 47.95 1579.19 41.20 1579.00 36.00
C 1576.00 36.00 1573.00 36.00 1570.00 36.00
C 1571.02 27.67 1585.39 33.95 1592.00 32.00
M 1612.00 56.00 
C 1617.19 48.67 1622.51 40.44 1626.00 32.00
C 1632.62 39.33 1630.37 53.94 1634.00 64.00
C 1624.60 64.26 1627.98 49.74 1626.00 43.00
C 1621.69 49.58 1616.99 56.64 1614.00 64.00
C 1606.11 61.39 1604.46 50.10 1599.00 44.00
C 1594.79 49.38 1600.26 63.83 1591.00 64.00
C 1592.21 53.24 1593.50 41.78 1597.00 32.00
C 1602.83 39.26 1606.56 48.58 1612.00 56.00
M 484.00 328.00 
C 521.21 402.62 558.38 477.19 595.00 552.00
C 524.67 552.00 454.33 552.00 384.00 552.00
C 355.35 486.32 324.01 421.57 295.00 356.00
C 275.33 356.00 255.67 356.00 236.00 356.00
C 236.00 421.33 236.00 486.67 236.00 552.00
C 172.67 552.00 109.33 552.00 46.00 552.00
C 46.00 380.67 46.00 209.33 46.00 38.00
C 84.68 38.02 125.54 37.97 164.00 38.00 C 202.46 38.03 244.34 37.94 282.00 38.00 C 319.66 38.06 363.54 37.44 399.00 39.00 C 434.46 40.56 467.10 47.83 497.22 59.78 C 527.35 71.73 544.82 85.45 565.75 109.25 C 586.68 133.04 594.84 168.84 593.00 200.00 C 591.16 231.16 580.22 261.45 558.75 283.75 C 537.28 306.05 511.31 316.92 484.00 328.00
M 1071.00 38.00 
C 1071.00 79.33 1071.00 120.67 1071.00 162.00
C 1028.34 162.00 985.66 162.00 943.00 162.00
C 943.00 292.00 943.00 422.00 943.00 552.00
C 883.00 552.00 823.00 552.00 763.00 552.00
C 763.00 422.00 763.00 292.00 763.00 162.00
C 720.33 162.00 677.67 162.00 635.00 162.00
C 635.00 120.67 635.00 79.33 635.00 38.00
C 780.34 38.00 925.66 38.00 1071.00 38.00
M 186.00 707.00 
C 187.42 714.29 181.52 724.12 183.00 731.00 C 184.49 737.88 180.05 753.84 176.68 745.32 C 173.31 736.80 174.57 731.54 165.32 728.68 C 156.07 725.82 149.71 725.86 140.00 726.00 C 130.29 726.14 121.76 725.97 112.00 726.00 C 102.24 726.03 106.48 738.97 106.00 747.00 C 105.52 755.03 106.05 766.73 106.00 775.00 C 105.95 783.27 106.78 794.07 107.00 802.00 C 107.22 809.93 107.36 818.25 113.75 823.25 C 120.15 828.25 130.46 825.31 138.00 827.00
C 135.12 836.13 120.91 831.07 112.00 831.00 C 103.09 830.93 88.96 831.74 80.00 831.00 C 71.04 830.26 56.88 836.32 54.00 827.00
C 71.84 829.45 77.61 816.10 77.00 800.00 C 76.39 783.90 77.44 766.39 78.00 750.00 C 78.56 733.61 76.95 716.74 78.00 700.00 C 79.05 683.26 74.94 667.08 77.00 650.00 C 79.06 632.92 65.45 624.36 49.00 627.00
C 50.65 618.89 62.96 621.92 71.00 622.00 C 79.04 622.08 89.17 623.74 98.00 623.00 C 106.83 622.26 116.98 623.69 126.00 623.00 C 135.02 622.31 144.99 624.10 154.00 623.00 C 163.01 621.90 172.97 625.40 181.67 622.67 C 190.37 619.94 198.02 620.20 193.22 630.22 C 188.42 640.24 195.73 646.43 190.22 655.22 C 184.71 664.01 184.97 645.73 180.69 642.31 C 176.41 638.88 166.84 634.10 160.00 635.00 C 153.15 635.91 138.72 633.21 132.00 635.00 C 125.28 636.79 110.85 629.82 106.75 635.75 C 102.66 641.69 106.93 655.59 106.00 663.00 C 105.07 670.41 105.50 683.68 106.00 691.00 C 106.50 698.32 101.93 713.26 110.01 714.99 C 118.09 716.73 129.35 713.71 138.00 715.00 C 146.65 716.30 156.50 713.67 165.00 714.00 C 173.51 714.33 178.96 709.79 186.00 707.00
M 767.00 650.00 
C 784.52 655.80 797.57 672.89 812.25 684.75 C 826.92 696.61 840.74 709.65 855.25 721.75 C 869.75 733.86 883.61 746.85 898.08 758.92 C 912.56 770.99 926.03 785.13 941.00 796.00
C 940.34 787.28 939.60 779.05 940.00 770.00 C 940.40 760.95 939.69 751.85 939.00 743.00 C 938.31 734.15 939.89 724.85 939.00 716.00 C 938.11 707.15 938.05 698.13 938.00 689.00 C 937.95 679.87 938.90 673.25 935.22 664.78 C 931.54 656.30 921.59 661.46 914.00 658.00 C 906.41 654.55 919.70 651.83 927.00 654.00 C 934.30 656.17 947.45 652.23 955.00 654.00 C 962.55 655.77 975.38 648.31 977.00 658.00
C 959.04 655.25 955.57 668.70 957.00 684.00 C 958.43 699.30 956.05 715.28 957.00 731.00 C 957.95 746.72 956.36 759.96 956.01 776.01 C 955.66 792.05 955.59 805.69 956.00 823.00 C 956.41 840.31 940.59 826.98 932.25 819.75 C 923.90 812.52 915.11 806.49 906.75 799.25 C 898.40 792.01 889.60 785.03 881.25 777.75 C 872.89 770.48 863.98 763.67 855.75 756.25 C 847.52 748.83 839.57 742.02 831.25 734.75 C 822.93 727.48 814.59 720.05 806.25 712.75 C 797.91 705.45 789.70 697.75 781.00 691.00
C 780.65 704.67 781.85 717.40 782.00 731.00 C 782.15 744.60 782.97 758.28 783.00 772.00 C 783.03 785.72 784.46 798.24 785.00 812.00 C 785.54 825.76 800.65 827.50 812.00 827.00
C 808.84 836.31 796.39 830.62 787.00 831.00 C 777.61 831.38 765.60 830.58 755.93 831.93 C 746.25 833.27 734.72 831.63 725.00 831.00 C 715.28 830.38 703.46 832.23 694.00 830.00
C 701.51 825.30 698.82 819.26 694.70 812.31 C 690.57 805.35 688.32 799.37 685.03 791.98 C 681.73 784.58 678.43 779.85 675.08 771.92 C 671.72 764.00 661.24 765.26 652.00 766.00 C 642.76 766.74 631.97 764.49 622.00 766.00 C 612.03 767.51 604.35 760.18 599.08 773.08 C 593.80 785.97 586.25 801.17 581.22 814.22 C 576.19 827.27 587.60 826.32 596.00 827.00
C 592.24 834.49 577.11 832.16 567.00 831.00 C 556.89 829.84 543.29 834.97 533.33 831.67 C 523.37 828.37 545.54 826.03 551.69 822.69 C 557.85 819.36 563.10 809.42 566.31 802.31 C 569.51 795.19 573.80 786.00 577.31 778.31 C 580.81 770.61 585.28 761.90 588.92 753.92 C 592.56 745.94 596.16 738.11 599.92 729.92 C 603.69 721.74 607.51 714.63 610.98 705.98 C 614.44 697.32 619.33 691.09 622.77 681.77 C 626.21 672.45 630.24 668.53 633.77 657.77 C 637.30 647.01 646.19 649.63 649.31 659.70 C 652.42 669.76 657.83 674.77 661.31 683.70 C 664.78 692.62 669.48 698.65 672.92 707.08 C 676.37 715.50 680.24 722.72 684.31 730.70 C 688.37 738.67 692.32 747.10 695.92 755.08 C 699.53 763.06 704.06 770.56 707.77 778.23 C 711.48 785.90 715.51 794.41 719.31 801.69 C 723.10 808.98 728.15 817.61 735.08 821.92 C 742.02 826.22 756.50 830.24 761.77 821.77 C 767.03 813.30 764.47 800.76 765.00 790.00 C 765.53 779.24 764.69 765.27 765.00 754.00 C 765.31 742.73 764.73 730.43 765.00 719.00 C 765.27 707.57 764.58 695.42 765.00 684.00 C 765.42 672.58 763.31 660.52 767.00 650.00
M 1488.00 654.00 
C 1512.17 653.70 1538.84 653.86 1563.00 654.00
C 1559.23 661.11 1540.27 656.06 1540.22 669.22 C 1540.18 682.39 1539.70 694.37 1540.00 707.00 C 1540.30 719.63 1539.47 732.92 1540.00 745.00 C 1540.53 757.08 1538.88 771.87 1540.00 783.00 C 1541.12 794.13 1537.47 807.75 1545.30 815.70 C 1553.14 823.64 1567.40 819.68 1578.00 821.00 C 1588.60 822.32 1602.80 820.92 1613.02 818.02 C 1623.25 815.13 1622.00 799.53 1631.00 798.00
C 1629.92 807.72 1631.72 817.98 1626.69 826.69 C 1621.66 835.41 1607.78 831.81 1598.00 832.00 C 1588.22 832.19 1574.26 832.72 1564.00 832.00 C 1553.74 831.28 1542.78 830.97 1532.00 831.00 C 1521.22 831.03 1509.50 831.19 1499.00 832.00 C 1488.50 832.81 1475.97 832.27 1466.00 831.00 C 1456.03 829.73 1441.20 834.95 1436.00 827.00
C 1444.37 822.28 1434.71 808.63 1430.08 799.92 C 1425.44 791.22 1421.32 779.07 1415.69 770.31 C 1410.07 761.54 1387.81 766.68 1377.00 766.00 C 1366.19 765.32 1344.88 762.25 1340.22 773.22 C 1335.57 784.20 1332.58 792.64 1327.08 803.08 C 1321.57 813.51 1318.20 831.15 1337.00 827.00
C 1334.79 836.31 1322.54 829.99 1314.00 831.00 C 1305.46 832.01 1294.46 830.15 1285.78 831.78 C 1277.09 833.41 1266.64 831.42 1258.00 831.00 C 1249.36 830.58 1237.37 831.79 1229.00 831.00 C 1220.63 830.21 1208.30 836.24 1206.00 827.00
C 1217.79 828.42 1224.63 822.49 1225.00 811.00 C 1225.36 799.51 1226.38 787.93 1226.00 776.00 C 1225.62 764.07 1226.00 752.06 1226.00 740.00 C 1226.00 727.94 1225.59 717.34 1226.00 705.00 C 1226.41 692.66 1225.29 682.43 1225.22 669.78 C 1225.16 657.13 1209.06 661.35 1205.00 654.00
C 1227.18 653.77 1251.81 653.77 1274.00 654.00
C 1270.01 660.88 1253.31 657.92 1254.02 671.02 C 1254.74 684.13 1253.66 695.34 1254.00 708.00 C 1254.34 720.66 1253.85 732.57 1254.00 745.00 C 1254.15 757.43 1253.93 769.72 1254.00 782.00 C 1254.07 794.28 1253.49 805.41 1255.98 817.02 C 1258.46 828.64 1273.76 826.70 1283.00 826.00 C 1292.25 825.31 1300.03 818.09 1303.77 809.77 C 1307.51 801.45 1312.18 793.32 1315.77 784.77 C 1319.36 776.22 1323.79 768.27 1327.77 759.77 C 1331.75 751.27 1335.02 742.91 1339.31 734.31 C 1343.59 725.70 1347.12 717.28 1351.31 708.31 C 1355.49 699.33 1359.14 692.76 1362.98 682.98 C 1366.81 673.19 1371.32 669.38 1374.92 657.92 C 1378.53 646.47 1388.29 650.14 1391.31 660.70 C 1394.32 671.25 1400.43 675.79 1403.77 685.23 C 1407.11 694.67 1411.40 701.60 1415.77 710.23 C 1420.14 718.86 1423.76 727.57 1427.92 736.08 C 1432.09 744.58 1436.21 752.26 1440.31 760.69 C 1444.40 769.13 1448.02 777.29 1452.31 785.69 C 1456.59 794.10 1459.99 801.68 1465.25 809.75 C 1470.51 817.81 1475.96 823.71 1486.07 825.93 C 1496.19 828.14 1509.49 826.89 1510.33 814.33 C 1511.17 801.77 1512.60 791.72 1512.00 779.00 C 1511.40 766.28 1512.15 754.67 1512.00 742.00 C 1511.85 729.33 1511.79 717.84 1512.00 705.00 C 1512.21 692.16 1511.71 682.00 1511.07 668.93 C 1510.44 655.86 1491.94 662.15 1488.00 654.00
M 508.00 796.00 
C 509.21 781.87 506.54 768.97 507.00 755.00 C 507.46 741.03 505.88 727.98 506.00 714.00 C 506.12 700.02 505.06 687.16 505.00 673.00 C 504.94 658.84 489.34 657.67 478.00 658.00
C 479.40 649.70 489.76 654.05 497.00 654.00 C 504.24 653.95 514.35 653.83 522.00 654.00 C 529.65 654.17 537.56 652.21 545.00 654.00
C 543.43 662.21 525.38 655.71 525.07 667.07 C 524.77 678.43 523.81 688.71 524.00 700.00 C 524.19 711.29 523.95 721.79 524.00 733.00 C 524.05 744.21 524.04 755.85 524.00 767.00 C 523.96 778.15 524.17 788.93 524.00 800.00 C 523.83 811.07 524.82 822.35 523.00 833.00
C 504.96 828.47 491.18 812.11 476.25 800.75 C 461.32 789.39 447.31 776.11 432.75 764.25 C 418.20 752.38 404.99 739.58 390.75 727.25 C 376.52 714.92 362.06 702.65 348.00 690.00
C 348.88 697.83 349.49 705.83 349.00 714.00 C 348.51 722.17 350.02 729.96 350.00 738.00 C 349.98 746.04 349.80 754.58 350.78 762.22 C 351.76 769.86 350.78 779.53 351.00 787.00 C 351.22 794.47 352.76 803.72 352.33 810.67 C 351.90 817.62 357.57 824.14 362.68 825.32 C 367.78 826.50 383.37 826.48 377.91 830.92 C 372.46 835.35 361.72 830.17 355.00 831.00 C 348.28 831.83 336.77 830.86 330.00 831.00 C 323.23 831.14 310.90 835.80 310.00 827.00
C 328.00 830.09 333.44 817.80 332.00 802.00 C 330.56 786.20 332.55 771.01 332.00 755.00 C 331.45 738.99 332.08 723.32 332.00 707.00 C 331.92 690.68 331.63 676.98 332.00 660.00 C 332.37 643.02 348.31 655.46 355.75 663.25 C 363.19 671.05 373.19 678.32 381.25 685.75 C 389.31 693.19 398.01 700.32 406.25 707.75 C 414.49 715.18 423.29 721.97 431.70 729.30 C 440.11 736.63 448.72 744.55 457.25 751.75 C 465.77 758.96 473.76 766.42 482.25 773.75 C 490.74 781.09 499.20 789.10 508.00 796.00
M 1182.00 657.00 
C 1180.34 664.38 1182.57 674.81 1181.00 682.00 C 1179.43 689.19 1183.40 701.52 1174.00 702.00
C 1173.14 693.99 1172.64 685.21 1167.08 678.92 C 1161.53 672.63 1155.63 669.99 1147.78 667.22 C 1139.92 664.46 1130.68 662.93 1122.00 662.00 C 1113.32 661.07 1100.97 660.46 1092.00 661.00 C 1083.03 661.54 1073.16 662.96 1064.99 664.99 C 1056.83 667.03 1050.03 669.97 1043.30 674.30 C 1036.58 678.64 1032.61 682.52 1027.75 688.75 C 1022.88 694.97 1019.28 701.27 1017.07 709.07 C 1014.86 716.88 1013.30 727.93 1013.22 736.22 C 1013.14 744.51 1015.17 754.60 1017.93 762.07 C 1020.69 769.55 1024.22 775.96 1028.77 782.23 C 1033.32 788.50 1038.20 793.02 1044.25 797.75 C 1050.29 802.48 1055.93 806.63 1063.08 809.92 C 1070.22 813.22 1076.87 816.09 1085.02 817.98 C 1093.18 819.86 1102.93 822.09 1112.00 822.00 C 1121.07 821.91 1133.16 822.83 1142.00 821.00 C 1150.84 819.17 1156.60 818.05 1164.08 812.08 C 1171.56 806.11 1171.65 802.84 1175.98 792.98 C 1180.30 783.11 1185.51 797.53 1181.00 805.00 C 1176.50 812.47 1180.41 821.72 1173.25 827.25 C 1166.08 832.77 1156.77 831.57 1148.00 833.00 C 1139.23 834.43 1128.20 834.52 1119.00 835.00 C 1109.80 835.48 1098.34 833.93 1089.33 833.67 C 1080.32 833.41 1071.26 830.68 1062.93 829.07 C 1054.60 827.47 1047.14 824.46 1039.77 821.23 C 1032.41 817.99 1026.23 814.54 1019.92 810.08 C 1013.61 805.62 1009.73 801.40 1004.25 795.75 C 998.77 790.10 995.47 784.44 991.70 777.31 C 987.92 770.17 986.59 761.28 985.00 753.00 C 983.42 744.71 983.95 732.95 985.93 724.93 C 987.91 716.90 989.97 709.02 994.25 702.25 C 998.53 695.49 1001.46 689.77 1007.25 684.25 C 1013.04 678.72 1016.52 674.43 1023.25 670.25 C 1029.97 666.06 1036.25 662.77 1044.03 660.03 C 1051.80 657.28 1059.38 654.56 1068.07 653.07 C 1076.77 651.58 1086.65 650.86 1096.00 650.00 C 1105.35 649.14 1116.66 650.49 1126.00 651.00 C 1135.35 651.50 1145.06 651.92 1154.07 653.93 C 1163.09 655.93 1172.87 655.40 1182.00 657.00
M 288.00 654.00 
C 286.59 662.18 271.38 655.88 269.70 665.70 C 268.01 675.51 267.77 684.71 268.00 695.00 C 268.23 705.29 267.75 715.68 268.00 726.00 C 268.25 736.32 267.56 746.66 268.00 757.00 C 268.44 767.34 267.07 777.64 268.00 788.00 C 268.93 798.36 267.89 805.26 270.00 816.00 C 272.10 826.75 279.63 824.34 290.07 826.93 C 300.52 829.52 285.99 833.88 276.98 831.02 C 267.96 828.17 255.04 833.19 246.00 831.00 C 236.96 828.81 225.29 836.68 220.00 828.00
C 234.46 828.31 240.22 819.72 240.00 806.00 C 239.78 792.28 241.46 778.99 241.00 765.00 C 240.54 751.01 240.99 735.96 241.00 722.00 C 241.01 708.04 240.47 693.77 241.00 680.00 C 241.53 666.23 235.35 655.59 220.00 658.00
C 221.36 649.49 231.64 654.28 239.00 654.00 C 246.36 653.72 256.17 653.81 264.00 654.00 C 271.83 654.19 280.51 652.46 288.00 654.00 Z"/>
</g>
<g fill="None" fill-opacity="0.0" stroke="#008DE8" stroke-opacity="1.00" stroke-width="0.3"><path d="
M 1608.00 157.00 
C 1599.49 136.78 1588.02 119.17 1572.25 102.75 C 1556.48 86.33 1541.05 75.09 1520.75 64.25 C 1500.44 53.42 1478.82 45.14 1455.02 39.98 C 1431.22 34.81 1401.95 30.83 1376.00 30.00 C 1350.05 29.17 1315.21 31.19 1290.22 34.22 C 1265.23 37.26 1240.51 43.84 1218.07 52.07 C 1195.64 60.31 1179.05 70.35 1160.75 84.75 C 1142.45 99.14 1131.13 112.22 1119.31 132.31 C 1107.48 152.39 1101.97 181.93 1103.00 206.00 C 1104.03 230.07 1112.28 254.11 1126.23 272.77 C 1140.18 291.43 1152.69 304.16 1172.92 315.08 C 1193.16 325.99 1215.65 333.70 1237.93 340.07 C 1260.20 346.44 1287.54 353.78 1310.33 357.67 C 1333.11 361.56 1365.03 367.64 1385.99 372.01 C 1406.95 376.38 1439.62 387.76 1430.93 413.93 C 1422.23 440.09 1387.81 435.80 1365.00 438.00 C 1342.19 440.20 1309.28 434.17 1289.23 423.77 C 1269.18 413.37 1255.15 396.92 1248.00 376.00
C 1233.96 378.48 1219.78 380.59 1205.67 382.67 C 1191.56 384.75 1178.09 386.80 1164.00 389.00 C 1149.91 391.21 1136.29 392.90 1122.02 395.02 C 1107.76 397.15 1095.06 399.63 1080.22 401.22 C 1065.38 402.81 1078.60 420.37 1082.69 430.31 C 1086.79 440.24 1093.80 451.58 1100.23 460.77 C 1106.66 469.96 1113.89 478.51 1122.25 486.75 C 1130.60 494.99 1138.54 502.16 1148.25 508.75 C 1157.97 515.33 1167.25 521.50 1178.31 526.70 C 1189.36 531.89 1200.14 536.89 1212.32 540.68 C 1224.51 544.47 1236.80 548.29 1250.00 551.00 C 1263.19 553.71 1277.88 555.50 1291.99 557.01 C 1306.11 558.52 1322.18 559.80 1337.00 560.00 C 1351.82 560.20 1369.58 560.10 1384.00 559.00 C 1398.42 557.90 1414.12 557.03 1427.78 554.78 C 1441.44 552.53 1454.94 549.89 1467.78 546.78 C 1480.61 543.66 1491.90 538.96 1503.78 534.78 C 1515.65 530.59 1525.56 525.00 1536.31 519.31 C 1547.05 513.61 1555.79 507.63 1565.30 500.30 C 1574.82 492.97 1583.00 486.21 1590.75 476.75 C 1598.50 467.29 1604.93 459.53 1610.23 448.23 C 1615.52 436.93 1620.52 425.85 1623.00 413.00 C 1625.48 400.15 1625.36 381.14 1624.00 368.00 C 1622.64 354.86 1619.12 341.44 1613.92 330.08 C 1608.73 318.71 1603.25 309.80 1595.30 300.70 C 1587.36 291.59 1580.66 284.21 1571.25 276.75 C 1561.83 269.29 1552.95 263.60 1542.08 257.92 C 1531.20 252.25 1519.20 248.50 1507.07 244.93 C 1494.95 241.35 1481.76 237.84 1469.02 234.98 C 1456.28 232.11 1442.70 228.99 1429.67 226.33 C 1416.64 223.67 1402.43 221.10 1389.22 218.78 C 1376.01 216.46 1362.12 213.36 1349.00 211.00 C 1335.89 208.64 1323.24 205.78 1311.08 200.92 C 1298.91 196.06 1290.64 187.27 1292.00 174.00 C 1293.36 160.73 1303.09 153.15 1315.78 149.78 C 1328.46 146.40 1345.25 144.17 1359.00 145.00 C 1372.75 145.83 1387.70 147.93 1399.93 152.07 C 1412.15 156.22 1421.27 161.11 1430.75 169.25 C 1440.23 177.39 1445.79 186.38 1451.00 197.00
C 1503.25 183.37 1555.80 170.78 1608.00 157.00 Z"/>
</g>
<g fill="None" fill-opacity="0.0" stroke="#008DE8" stroke-opacity="0.82" stroke-width="0.3"><path d="
M 1592.00 32.00 
C 1585.39 33.95 1571.02 27.67 1570.00 36.00
C 1573.00 36.00 1576.00 36.00 1579.00 36.00
C 1579.19 41.20 1578.75 47.95 1579.00 53.00 C 1579.25 58.05 1576.83 65.55 1584.00 64.00
C 1584.00 54.67 1584.00 45.33 1584.00 36.00
C 1587.25 35.78 1593.63 37.50 1592.00 32.00 Z"/>
</g>
<g fill="None" fill-opacity="0.0" stroke="#008DE8" stroke-opacity="0.80" stroke-width="0.3"><path d="
M 1612.00 56.00 
C 1606.56 48.58 1602.83 39.26 1597.00 32.00
C 1593.50 41.78 1592.21 53.24 1591.00 64.00
C 1600.26 63.83 1594.79 49.38 1599.00 44.00
C 1604.46 50.10 1606.11 61.39 1614.00 64.00
C 1616.99 56.64 1621.69 49.58 1626.00 43.00
C 1627.98 49.74 1624.60 64.26 1634.00 64.00
C 1630.37 53.94 1632.62 39.33 1626.00 32.00
C 1622.51 40.44 1617.19 48.67 1612.00 56.00 Z"/>
</g>
<g fill="None" fill-opacity="0.0" stroke="#008DE8" stroke-opacity="1.00" stroke-width="0.3"><path d="
M 484.00 328.00 
C 511.31 316.92 537.28 306.05 558.75 283.75 C 580.22 261.45 591.16 231.16 593.00 200.00 C 594.84 168.84 586.68 133.04 565.75 109.25 C 544.82 85.45 527.35 71.73 497.22 59.78 C 467.10 47.83 434.46 40.56 399.00 39.00 C 363.54 37.44 319.66 38.06 282.00 38.00 C 244.34 37.94 202.46 38.03 164.00 38.00 C 125.54 37.97 84.68 38.02 46.00 38.00
C 46.00 209.33 46.00 380.67 46.00 552.00
C 109.33 552.00 172.67 552.00 236.00 552.00
C 236.00 486.67 236.00 421.33 236.00 356.00
C 255.67 356.00 275.33 356.00 295.00 356.00
C 324.01 421.57 355.35 486.32 384.00 552.00
C 454.33 552.00 524.67 552.00 595.00 552.00
C 558.38 477.19 521.21 402.62 484.00 328.00
M 236.00 245.00 
C 236.00 212.67 236.00 180.33 236.00 148.00
C 277.53 150.12 328.69 142.26 366.69 155.31 C 404.70 168.35 404.07 222.80 366.31 236.31 C 328.54 249.81 277.75 243.95 236.00 245.00 Z"/>
</g>
<g fill="None" fill-opacity="0.0" stroke="#008DE8" stroke-opacity="1.00" stroke-width="0.3"><path d="
M 1071.00 38.00 
C 925.66 38.00 780.34 38.00 635.00 38.00
C 635.00 79.33 635.00 120.67 635.00 162.00
C 677.67 162.00 720.33 162.00 763.00 162.00
C 763.00 292.00 763.00 422.00 763.00 552.00
C 823.00 552.00 883.00 552.00 943.00 552.00
C 943.00 422.00 943.00 292.00 943.00 162.00
C 985.66 162.00 1028.34 162.00 1071.00 162.00
C 1071.00 120.67 1071.00 79.33 1071.00 38.00 Z"/>
</g>
<g fill="None" fill-opacity="0.0" stroke="#000000" stroke-opacity="0.00" stroke-width="0.3"><path d="
M 236.00 245.00 
C 277.75 243.95 328.54 249.81 366.31 236.31 C 404.07 222.80 404.70 168.35 366.69 155.31 C 328.69 142.26 277.53 150.12 236.00 148.00
C 236.00 180.33 236.00 212.67 236.00 245.00 Z"/>
</g>
<g fill="None" fill-opacity="0.0" stroke="#008DE8" stroke-opacity="0.96" stroke-width="0.3"><path d="
M 186.00 707.00 
C 178.96 709.79 173.51 714.33 165.00 714.00 C 156.50 713.67 146.65 716.30 138.00 715.00 C 129.35 713.71 118.09 716.73 110.01 714.99 C 101.93 713.26 106.50 698.32 106.00 691.00 C 105.50 683.68 105.07 670.41 106.00 663.00 C 106.93 655.59 102.66 641.69 106.75 635.75 C 110.85 629.82 125.28 636.79 132.00 635.00 C 138.72 633.21 153.15 635.91 160.00 635.00 C 166.84 634.10 176.41 638.88 180.69 642.31 C 184.97 645.73 184.71 664.01 190.22 655.22 C 195.73 646.43 188.42 640.24 193.22 630.22 C 198.02 620.20 190.37 619.94 181.67 622.67 C 172.97 625.40 163.01 621.90 154.00 623.00 C 144.99 624.10 135.02 622.31 126.00 623.00 C 116.98 623.69 106.83 622.26 98.00 623.00 C 89.17 623.74 79.04 622.08 71.00 622.00 C 62.96 621.92 50.65 618.89 49.00 627.00
C 65.45 624.36 79.06 632.92 77.00 650.00 C 74.94 667.08 79.05 683.26 78.00 700.00 C 76.95 716.74 78.56 733.61 78.00 750.00 C 77.44 766.39 76.39 783.90 77.00 800.00 C 77.61 816.10 71.84 829.45 54.00 827.00
C 56.88 836.32 71.04 830.26 80.00 831.00 C 88.96 831.74 103.09 830.93 112.00 831.00 C 120.91 831.07 135.12 836.13 138.00 827.00
C 130.46 825.31 120.15 828.25 113.75 823.25 C 107.36 818.25 107.22 809.93 107.00 802.00 C 106.78 794.07 105.95 783.27 106.00 775.00 C 106.05 766.73 105.52 755.03 106.00 747.00 C 106.48 738.97 102.24 726.03 112.00 726.00 C 121.76 725.97 130.29 726.14 140.00 726.00 C 149.71 725.86 156.07 725.82 165.32 728.68 C 174.57 731.54 173.31 736.80 176.68 745.32 C 180.05 753.84 184.49 737.88 183.00 731.00 C 181.52 724.12 187.42 714.29 186.00 707.00 Z"/>
</g>
<g fill="None" fill-opacity="0.0" stroke="#008DE8" stroke-opacity="0.95" stroke-width="0.3"><path d="
M 767.00 650.00 
C 763.31 660.52 765.42 672.58 765.00 684.00 C 764.58 695.42 765.27 707.57 765.00 719.00 C 764.73 730.43 765.31 742.73 765.00 754.00 C 764.69 765.27 765.53 779.24 765.00 790.00 C 764.47 800.76 767.03 813.30 761.77 821.77 C 756.50 830.24 742.02 826.22 735.08 821.92 C 728.15 817.61 723.10 808.98 719.31 801.69 C 715.51 794.41 711.48 785.90 707.77 778.23 C 704.06 770.56 699.53 763.06 695.92 755.08 C 692.32 747.10 688.37 738.67 684.31 730.70 C 680.24 722.72 676.37 715.50 672.92 707.08 C 669.48 698.65 664.78 692.62 661.31 683.70 C 657.83 674.77 652.42 669.76 649.31 659.70 C 646.19 649.63 637.30 647.01 633.77 657.77 C 630.24 668.53 626.21 672.45 622.77 681.77 C 619.33 691.09 614.44 697.32 610.98 705.98 C 607.51 714.63 603.69 721.74 599.92 729.92 C 596.16 738.11 592.56 745.94 588.92 753.92 C 585.28 761.90 580.81 770.61 577.31 778.31 C 573.80 786.00 569.51 795.19 566.31 802.31 C 563.10 809.42 557.85 819.36 551.69 822.69 C 545.54 826.03 523.37 828.37 533.33 831.67 C 543.29 834.97 556.89 829.84 567.00 831.00 C 577.11 832.16 592.24 834.49 596.00 827.00
C 587.60 826.32 576.19 827.27 581.22 814.22 C 586.25 801.17 593.80 785.97 599.08 773.08 C 604.35 760.18 612.03 767.51 622.00 766.00 C 631.97 764.49 642.76 766.74 652.00 766.00 C 661.24 765.26 671.72 764.00 675.08 771.92 C 678.43 779.85 681.73 784.58 685.03 791.98 C 688.32 799.37 690.57 805.35 694.70 812.31 C 698.82 819.26 701.51 825.30 694.00 830.00
C 703.46 832.23 715.28 830.38 725.00 831.00 C 734.72 831.63 746.25 833.27 755.93 831.93 C 765.60 830.58 777.61 831.38 787.00 831.00 C 796.39 830.62 808.84 836.31 812.00 827.00
C 800.65 827.50 785.54 825.76 785.00 812.00 C 784.46 798.24 783.03 785.72 783.00 772.00 C 782.97 758.28 782.15 744.60 782.00 731.00 C 781.85 717.40 780.65 704.67 781.00 691.00
C 789.70 697.75 797.91 705.45 806.25 712.75 C 814.59 720.05 822.93 727.48 831.25 734.75 C 839.57 742.02 847.52 748.83 855.75 756.25 C 863.98 763.67 872.89 770.48 881.25 777.75 C 889.60 785.03 898.40 792.01 906.75 799.25 C 915.11 806.49 923.90 812.52 932.25 819.75 C 940.59 826.98 956.41 840.31 956.00 823.00 C 955.59 805.69 955.66 792.05 956.01 776.01 C 956.36 759.96 957.95 746.72 957.00 731.00 C 956.05 715.28 958.43 699.30 957.00 684.00 C 955.57 668.70 959.04 655.25 977.00 658.00
C 975.38 648.31 962.55 655.77 955.00 654.00 C 947.45 652.23 934.30 656.17 927.00 654.00 C 919.70 651.83 906.41 654.55 914.00 658.00 C 921.59 661.46 931.54 656.30 935.22 664.78 C 938.90 673.25 937.95 679.87 938.00 689.00 C 938.05 698.13 938.11 707.15 939.00 716.00 C 939.89 724.85 938.31 734.15 939.00 743.00 C 939.69 751.85 940.40 760.95 940.00 770.00 C 939.60 779.05 940.34 787.28 941.00 796.00
C 926.03 785.13 912.56 770.99 898.08 758.92 C 883.61 746.85 869.75 733.86 855.25 721.75 C 840.74 709.65 826.92 696.61 812.25 684.75 C 797.57 672.89 784.52 655.80 767.00 650.00
M 667.00 756.00 
C 647.00 756.00 627.00 756.00 607.00 756.00
C 616.37 733.28 625.50 710.23 636.00 688.00
C 647.59 709.56 657.17 733.25 667.00 756.00 Z"/>
</g>
<g fill="None" fill-opacity="0.0" stroke="#008DE8" stroke-opacity="0.95" stroke-width="0.3"><path d="
M 1488.00 654.00 
C 1491.94 662.15 1510.44 655.86 1511.07 668.93 C 1511.71 682.00 1512.21 692.16 1512.00 705.00 C 1511.79 717.84 1511.85 729.33 1512.00 742.00 C 1512.15 754.67 1511.40 766.28 1512.00 779.00 C 1512.60 791.72 1511.17 801.77 1510.33 814.33 C 1509.49 826.89 1496.19 828.14 1486.07 825.93 C 1475.96 823.71 1470.51 817.81 1465.25 809.75 C 1459.99 801.68 1456.59 794.10 1452.31 785.69 C 1448.02 777.29 1444.40 769.13 1440.31 760.69 C 1436.21 752.26 1432.09 744.58 1427.92 736.08 C 1423.76 727.57 1420.14 718.86 1415.77 710.23 C 1411.40 701.60 1407.11 694.67 1403.77 685.23 C 1400.43 675.79 1394.32 671.25 1391.31 660.70 C 1388.29 650.14 1378.53 646.47 1374.92 657.92 C 1371.32 669.38 1366.81 673.19 1362.98 682.98 C 1359.14 692.76 1355.49 699.33 1351.31 708.31 C 1347.12 717.28 1343.59 725.70 1339.31 734.31 C 1335.02 742.91 1331.75 751.27 1327.77 759.77 C 1323.79 768.27 1319.36 776.22 1315.77 784.77 C 1312.18 793.32 1307.51 801.45 1303.77 809.77 C 1300.03 818.09 1292.25 825.31 1283.00 826.00 C 1273.76 826.70 1258.46 828.64 1255.98 817.02 C 1253.49 805.41 1254.07 794.28 1254.00 782.00 C 1253.93 769.72 1254.15 757.43 1254.00 745.00 C 1253.85 732.57 1254.34 720.66 1254.00 708.00 C 1253.66 695.34 1254.74 684.13 1254.02 671.02 C 1253.31 657.92 1270.01 660.88 1274.00 654.00
C 1251.81 653.77 1227.18 653.77 1205.00 654.00
C 1209.06 661.35 1225.16 657.13 1225.22 669.78 C 1225.29 682.43 1226.41 692.66 1226.00 705.00 C 1225.59 717.34 1226.00 727.94 1226.00 740.00 C 1226.00 752.06 1225.62 764.07 1226.00 776.00 C 1226.38 787.93 1225.36 799.51 1225.00 811.00 C 1224.63 822.49 1217.79 828.42 1206.00 827.00
C 1208.30 836.24 1220.63 830.21 1229.00 831.00 C 1237.37 831.79 1249.36 830.58 1258.00 831.00 C 1266.64 831.42 1277.09 833.41 1285.78 831.78 C 1294.46 830.15 1305.46 832.01 1314.00 831.00 C 1322.54 829.99 1334.79 836.31 1337.00 827.00
C 1318.20 831.15 1321.57 813.51 1327.08 803.08 C 1332.58 792.64 1335.57 784.20 1340.22 773.22 C 1344.88 762.25 1366.19 765.32 1377.00 766.00 C 1387.81 766.68 1410.07 761.54 1415.69 770.31 C 1421.32 779.07 1425.44 791.22 1430.08 799.92 C 1434.71 808.63 1444.37 822.28 1436.00 827.00
C 1441.20 834.95 1456.03 829.73 1466.00 831.00 C 1475.97 832.27 1488.50 832.81 1499.00 832.00 C 1509.50 831.19 1521.22 831.03 1532.00 831.00 C 1542.78 830.97 1553.74 831.28 1564.00 832.00 C 1574.26 832.72 1588.22 832.19 1598.00 832.00 C 1607.78 831.81 1621.66 835.41 1626.69 826.69 C 1631.72 817.98 1629.92 807.72 1631.00 798.00
C 1622.00 799.53 1623.25 815.13 1613.02 818.02 C 1602.80 820.92 1588.60 822.32 1578.00 821.00 C 1567.40 819.68 1553.14 823.64 1545.30 815.70 C 1537.47 807.75 1541.12 794.13 1540.00 783.00 C 1538.88 771.87 1540.53 757.08 1540.00 745.00 C 1539.47 732.92 1540.30 719.63 1540.00 707.00 C 1539.70 694.37 1540.18 682.39 1540.22 669.22 C 1540.27 656.06 1559.23 661.11 1563.00 654.00
C 1538.84 653.86 1512.17 653.70 1488.00 654.00
M 1378.00 688.00 
C 1388.12 710.64 1399.14 732.97 1408.00 756.00
C 1388.34 756.00 1368.66 756.00 1349.00 756.00
C 1357.16 733.05 1366.67 709.36 1378.00 688.00 Z"/>
</g>
<g fill="None" fill-opacity="0.0" stroke="#008DE8" stroke-opacity="0.95" stroke-width="0.3"><path d="
M 508.00 796.00 
C 499.20 789.10 490.74 781.09 482.25 773.75 C 473.76 766.42 465.77 758.96 457.25 751.75 C 448.72 744.55 440.11 736.63 431.70 729.30 C 423.29 721.97 414.49 715.18 406.25 707.75 C 398.01 700.32 389.31 693.19 381.25 685.75 C 373.19 678.32 363.19 671.05 355.75 663.25 C 348.31 655.46 332.37 643.02 332.00 660.00 C 331.63 676.98 331.92 690.68 332.00 707.00 C 332.08 723.32 331.45 738.99 332.00 755.00 C 332.55 771.01 330.56 786.20 332.00 802.00 C 333.44 817.80 328.00 830.09 310.00 827.00
C 310.90 835.80 323.23 831.14 330.00 831.00 C 336.77 830.86 348.28 831.83 355.00 831.00 C 361.72 830.17 372.46 835.35 377.91 830.92 C 383.37 826.48 367.78 826.50 362.68 825.32 C 357.57 824.14 351.90 817.62 352.33 810.67 C 352.76 803.72 351.22 794.47 351.00 787.00 C 350.78 779.53 351.76 769.86 350.78 762.22 C 349.80 754.58 349.98 746.04 350.00 738.00 C 350.02 729.96 348.51 722.17 349.00 714.00 C 349.49 705.83 348.88 697.83 348.00 690.00
C 362.06 702.65 376.52 714.92 390.75 727.25 C 404.99 739.58 418.20 752.38 432.75 764.25 C 447.31 776.11 461.32 789.39 476.25 800.75 C 491.18 812.11 504.96 828.47 523.00 833.00
C 524.82 822.35 523.83 811.07 524.00 800.00 C 524.17 788.93 523.96 778.15 524.00 767.00 C 524.04 755.85 524.05 744.21 524.00 733.00 C 523.95 721.79 524.19 711.29 524.00 700.00 C 523.81 688.71 524.77 678.43 525.07 667.07 C 525.38 655.71 543.43 662.21 545.00 654.00
C 537.56 652.21 529.65 654.17 522.00 654.00 C 514.35 653.83 504.24 653.95 497.00 654.00 C 489.76 654.05 479.40 649.70 478.00 658.00
C 489.34 657.67 504.94 658.84 505.00 673.00 C 505.06 687.16 506.12 700.02 506.00 714.00 C 505.88 727.98 507.46 741.03 507.00 755.00 C 506.54 768.97 509.21 781.87 508.00 796.00 Z"/>
</g>
<g fill="None" fill-opacity="0.0" stroke="#008DE8" stroke-opacity="0.95" stroke-width="0.3"><path d="
M 1182.00 657.00 
C 1172.87 655.40 1163.09 655.93 1154.07 653.93 C 1145.06 651.92 1135.35 651.50 1126.00 651.00 C 1116.66 650.49 1105.35 649.14 1096.00 650.00 C 1086.65 650.86 1076.77 651.58 1068.07 653.07 C 1059.38 654.56 1051.80 657.28 1044.03 660.03 C 1036.25 662.77 1029.97 666.06 1023.25 670.25 C 1016.52 674.43 1013.04 678.72 1007.25 684.25 C 1001.46 689.77 998.53 695.49 994.25 702.25 C 989.97 709.02 987.91 716.90 985.93 724.93 C 983.95 732.95 983.42 744.71 985.00 753.00 C 986.59 761.28 987.92 770.17 991.70 777.31 C 995.47 784.44 998.77 790.10 1004.25 795.75 C 1009.73 801.40 1013.61 805.62 1019.92 810.08 C 1026.23 814.54 1032.41 817.99 1039.77 821.23 C 1047.14 824.46 1054.60 827.47 1062.93 829.07 C 1071.26 830.68 1080.32 833.41 1089.33 833.67 C 1098.34 833.93 1109.80 835.48 1119.00 835.00 C 1128.20 834.52 1139.23 834.43 1148.00 833.00 C 1156.77 831.57 1166.08 832.77 1173.25 827.25 C 1180.41 821.72 1176.50 812.47 1181.00 805.00 C 1185.51 797.53 1180.30 783.11 1175.98 792.98 C 1171.65 802.84 1171.56 806.11 1164.08 812.08 C 1156.60 818.05 1150.84 819.17 1142.00 821.00 C 1133.16 822.83 1121.07 821.91 1112.00 822.00 C 1102.93 822.09 1093.18 819.86 1085.02 817.98 C 1076.87 816.09 1070.22 813.22 1063.08 809.92 C 1055.93 806.63 1050.29 802.48 1044.25 797.75 C 1038.20 793.02 1033.32 788.50 1028.77 782.23 C 1024.22 775.96 1020.69 769.55 1017.93 762.07 C 1015.17 754.60 1013.14 744.51 1013.22 736.22 C 1013.30 727.93 1014.86 716.88 1017.07 709.07 C 1019.28 701.27 1022.88 694.97 1027.75 688.75 C 1032.61 682.52 1036.58 678.64 1043.30 674.30 C 1050.03 669.97 1056.83 667.03 1064.99 664.99 C 1073.16 662.96 1083.03 661.54 1092.00 661.00 C 1100.97 660.46 1113.32 661.07 1122.00 662.00 C 1130.68 662.93 1139.92 664.46 1147.78 667.22 C 1155.63 669.99 1161.53 672.63 1167.08 678.92 C 1172.64 685.21 1173.14 693.99 1174.00 702.00
C 1183.40 701.52 1179.43 689.19 1181.00 682.00 C 1182.57 674.81 1180.34 664.38 1182.00 657.00 Z"/>
</g>
<g fill="None" fill-opacity="0.0" stroke="#008DE8" stroke-opacity="0.97" stroke-width="0.3"><path d="
M 288.00 654.00 
C 280.51 652.46 271.83 654.19 264.00 654.00 C 256.17 653.81 246.36 653.72 239.00 654.00 C 231.64 654.28 221.36 649.49 220.00 658.00
C 235.35 655.59 241.53 666.23 241.00 680.00 C 240.47 693.77 241.01 708.04 241.00 722.00 C 240.99 735.96 240.54 751.01 241.00 765.00 C 241.46 778.99 239.78 792.28 240.00 806.00 C 240.22 819.72 234.46 828.31 220.00 828.00
C 225.29 836.68 236.96 828.81 246.00 831.00 C 255.04 833.19 267.96 828.17 276.98 831.02 C 285.99 833.88 300.52 829.52 290.07 826.93 C 279.63 824.34 272.10 826.75 270.00 816.00 C 267.89 805.26 268.93 798.36 268.00 788.00 C 267.07 777.64 268.44 767.34 268.00 757.00 C 267.56 746.66 268.25 736.32 268.00 726.00 C 267.75 715.68 268.23 705.29 268.00 695.00 C 267.77 684.71 268.01 675.51 269.70 665.70 C 271.38 655.88 286.59 662.18 288.00 654.00 Z"/>
</g>
<g fill="None" fill-opacity="0.0" stroke="#000000" stroke-opacity="0.00" stroke-width="0.3"><path d="
M 667.00 756.00 
C 657.17 733.25 647.59 709.56 636.00 688.00
C 625.50 710.23 616.37 733.28 607.00 756.00
C 627.00 756.00 647.00 756.00 667.00 756.00 Z"/>
</g>
<g fill="None" fill-opacity="0.0" stroke="#000000" stroke-opacity="0.00" stroke-width="0.3"><path d="
M 1378.00 688.00 
C 1366.67 709.36 1357.16 733.05 1349.00 756.00
C 1368.66 756.00 1388.34 756.00 1408.00 756.00
C 1399.14 732.97 1388.12 710.64 1378.00 688.00 Z"/>
</g>
<g fill="#000000" fill-opacity="0.00" stroke="None">
<path d="
M 0.00 872.00 
L 1668.00 872.00
L 1668.00 0.00
L 0.00 0.00
L 0.00 872.00
M 1608.00 157.00 
C 1555.80 170.78 1503.25 183.37 1451.00 197.00
C 1445.79 186.38 1440.23 177.39 1430.75 169.25 C 1421.27 161.11 1412.15 156.22 1399.93 152.07 C 1387.70 147.93 1372.75 145.83 1359.00 145.00 C 1345.25 144.17 1328.46 146.40 1315.78 149.78 C 1303.09 153.15 1293.36 160.73 1292.00 174.00 C 1290.64 187.27 1298.91 196.06 1311.08 200.92 C 1323.24 205.78 1335.89 208.64 1349.00 211.00 C 1362.12 213.36 1376.01 216.46 1389.22 218.78 C 1402.43 221.10 1416.64 223.67 1429.67 226.33 C 1442.70 228.99 1456.28 232.11 1469.02 234.98 C 1481.76 237.84 1494.95 241.35 1507.07 244.93 C 1519.20 248.50 1531.20 252.25 1542.08 257.92 C 1552.95 263.60 1561.83 269.29 1571.25 276.75 C 1580.66 284.21 1587.36 291.59 1595.30 300.70 C 1603.25 309.80 1608.73 318.71 1613.92 330.08 C 1619.12 341.44 1622.64 354.86 1624.00 368.00 C 1625.36 381.14 1625.48 400.15 1623.00 413.00 C 1620.52 425.85 1615.52 436.93 1610.23 448.23 C 1604.93 459.53 1598.50 467.29 1590.75 476.75 C 1583.00 486.21 1574.82 492.97 1565.30 500.30 C 1555.79 507.63 1547.05 513.61 1536.31 519.31 C 1525.56 525.00 1515.65 530.59 1503.78 534.78 C 1491.90 538.96 1480.61 543.66 1467.78 546.78 C 1454.94 549.89 1441.44 552.53 1427.78 554.78 C 1414.12 557.03 1398.42 557.90 1384.00 559.00 C 1369.58 560.10 1351.82 560.20 1337.00 560.00 C 1322.18 559.80 1306.11 558.52 1291.99 557.01 C 1277.88 555.50 1263.19 553.71 1250.00 551.00 C 1236.80 548.29 1224.51 544.47 1212.32 540.68 C 1200.14 536.89 1189.36 531.89 1178.31 526.70 C 1167.25 521.50 1157.97 515.33 1148.25 508.75 C 1138.54 502.16 1130.60 494.99 1122.25 486.75 C 1113.89 478.51 1106.66 469.96 1100.23 460.77 C 1093.80 451.58 1086.79 440.24 1082.69 430.31 C 1078.60 420.37 1065.38 402.81 1080.22 401.22 C 1095.06 399.63 1107.76 397.15 1122.02 395.02 C 1136.29 392.90 1149.91 391.21 1164.00 389.00 C 1178.09 386.80 1191.56 384.75 1205.67 382.67 C 1219.78 380.59 1233.96 378.48 1248.00 376.00
C 1255.15 396.92 1269.18 413.37 1289.23 423.77 C 1309.28 434.17 1342.19 440.20 1365.00 438.00 C 1387.81 435.80 1422.23 440.09 1430.93 413.93 C 1439.62 387.76 1406.95 376.38 1385.99 372.01 C 1365.03 367.64 1333.11 361.56 1310.33 357.67 C 1287.54 353.78 1260.20 346.44 1237.93 340.07 C 1215.65 333.70 1193.16 325.99 1172.92 315.08 C 1152.69 304.16 1140.18 291.43 1126.23 272.77 C 1112.28 254.11 1104.03 230.07 1103.00 206.00 C 1101.97 181.93 1107.48 152.39 1119.31 132.31 C 1131.13 112.22 1142.45 99.14 1160.75 84.75 C 1179.05 70.35 1195.64 60.31 1218.07 52.07 C 1240.51 43.84 1265.23 37.26 1290.22 34.22 C 1315.21 31.19 1350.05 29.17 1376.00 30.00 C 1401.95 30.83 1431.22 34.81 1455.02 39.98 C 1478.82 45.14 1500.44 53.42 1520.75 64.25 C 1541.05 75.09 1556.48 86.33 1572.25 102.75 C 1588.02 119.17 1599.49 136.78 1608.00 157.00
M 1592.00 32.00 
C 1593.63 37.50 1587.25 35.78 1584.00 36.00
C 1584.00 45.33 1584.00 54.67 1584.00 64.00
C 1576.83 65.55 1579.25 58.05 1579.00 53.00 C 1578.75 47.95 1579.19 41.20 1579.00 36.00
C 1576.00 36.00 1573.00 36.00 1570.00 36.00
C 1571.02 27.67 1585.39 33.95 1592.00 32.00
M 1612.00 56.00 
C 1617.19 48.67 1622.51 40.44 1626.00 32.00
C 1632.62 39.33 1630.37 53.94 1634.00 64.00
C 1624.60 64.26 1627.98 49.74 1626.00 43.00
C 1621.69 49.58 1616.99 56.64 1614.00 64.00
C 1606.11 61.39 1604.46 50.10 1599.00 44.00
C 1594.79 49.38 1600.26 63.83 1591.00 64.00
C 1592.21 53.24 1593.50 41.78 1597.00 32.00
C 1602.83 39.26 1606.56 48.58 1612.00 56.00
M 484.00 328.00 
C 521.21 402.62 558.38 477.19 595.00 552.00
C 524.67 552.00 454.33 552.00 384.00 552.00
C 355.35 486.32 324.01 421.57 295.00 356.00
C 275.33 356.00 255.67 356.00 236.00 356.00
C 236.00 421.33 236.00 486.67 236.00 552.00
C 172.67 552.00 109.33 552.00 46.00 552.00
C 46.00 380.67 46.00 209.33 46.00 38.00
C 84.68 38.02 125.54 37.97 164.00 38.00 C 202.46 38.03 244.34 37.94 282.00 38.00 C 319.66 38.06 363.54 37.44 399.00 39.00 C 434.46 40.56 467.10 47.83 497.22 59.78 C 527.35 71.73 544.82 85.45 565.75 109.25 C 586.68 133.04 594.84 168.84 593.00 200.00 C 591.16 231.16 580.22 261.45 558.75 283.75 C 537.28 306.05 511.31 316.92 484.00 328.00
M 1071.00 38.00 
C 1071.00 79.33 1071.00 120.67 1071.00 162.00
C 1028.34 162.00 985.66 162.00 943.00 162.00
C 943.00 292.00 943.00 422.00 943.00 552.00
C 883.00 552.00 823.00 552.00 763.00 552.00
C 763.00 422.00 763.00 292.00 763.00 162.00
C 720.33 162.00 677.67 162.00 635.00 162.00
C 635.00 120.67 635.00 79.33 635.00 38.00
C 780.34 38.00 925.66 38.00 1071.00 38.00
M 186.00 707.00 
C 187.42 714.29 181.52 724.12 183.00 731.00 C 184.49 737.88 180.05 753.84 176.68 745.32 C 173.31 736.80 174.57 731.54 165.32 728.68 C 156.07 725.82 149.71 725.86 140.00 726.00 C 130.29 726.14 121.76 725.97 112.00 726.00 C 102.24 726.03 106.48 738.97 106.00 747.00 C 105.52 755.03 106.05 766.73 106.00 775.00 C 105.95 783.27 106.78 794.07 107.00 802.00 C 107.22 809.93 107.36 818.25 113.75 823.25 C 120.15 828.25 130.46 825.31 138.00 827.00
C 135.12 836.13 120.91 831.07 112.00 831.00 C 103.09 830.93 88.96 831.74 80.00 831.00 C 71.04 830.26 56.88 836.32 54.00 827.00
C 71.84 829.45 77.61 816.10 77.00 800.00 C 76.39 783.90 77.44 766.39 78.00 750.00 C 78.56 733.61 76.95 716.74 78.00 700.00 C 79.05 683.26 74.94 667.08 77.00 650.00 C 79.06 632.92 65.45 624.36 49.00 627.00
C 50.65 618.89 62.96 621.92 71.00 622.00 C 79.04 622.08 89.17 623.74 98.00 623.00 C 106.83 622.26 116.98 623.69 126.00 623.00 C 135.02 622.31 144.99 624.10 154.00 623.00 C 163.01 621.90 172.97 625.40 181.67 622.67 C 190.37 619.94 198.02 620.20 193.22 630.22 C 188.42 640.24 195.73 646.43 190.22 655.22 C 184.71 664.01 184.97 645.73 180.69 642.31 C 176.41 638.88 166.84 634.10 160.00 635.00 C 153.15 635.91 138.72 633.21 132.00 635.00 C 125.28 636.79 110.85 629.82 106.75 635.75 C 102.66 641.69 106.93 655.59 106.00 663.00 C 105.07 670.41 105.50 683.68 106.00 691.00 C 106.50 698.32 101.93 713.26 110.01 714.99 C 118.09 716.73 129.35 713.71 138.00 715.00 C 146.65 716.30 156.50 713.67 165.00 714.00 C 173.51 714.33 178.96 709.79 186.00 707.00
M 767.00 650.00 
C 784.52 655.80 797.57 672.89 812.25 684.75 C 826.92 696.61 840.74 709.65 855.25 721.75 C 869.75 733.86 883.61 746.85 898.08 758.92 C 912.56 770.99 926.03 785.13 941.00 796.00
C 940.34 787.28 939.60 779.05 940.00 770.00 C 940.40 760.95 939.69 751.85 939.00 743.00 C 938.31 734.15 939.89 724.85 939.00 716.00 C 938.11 707.15 938.05 698.13 938.00 689.00 C 937.95 679.87 938.90 673.25 935.22 664.78 C 931.54 656.30 921.59 661.46 914.00 658.00 C 906.41 654.55 919.70 651.83 927.00 654.00 C 934.30 656.17 947.45 652.23 955.00 654.00 C 962.55 655.77 975.38 648.31 977.00 658.00
C 959.04 655.25 955.57 668.70 957.00 684.00 C 958.43 699.30 956.05 715.28 957.00 731.00 C 957.95 746.72 956.36 759.96 956.01 776.01 C 955.66 792.05 955.59 805.69 956.00 823.00 C 956.41 840.31 940.59 826.98 932.25 819.75 C 923.90 812.52 915.11 806.49 906.75 799.25 C 898.40 792.01 889.60 785.03 881.25 777.75 C 872.89 770.48 863.98 763.67 855.75 756.25 C 847.52 748.83 839.57 742.02 831.25 734.75 C 822.93 727.48 814.59 720.05 806.25 712.75 C 797.91 705.45 789.70 697.75 781.00 691.00
C 780.65 704.67 781.85 717.40 782.00 731.00 C 782.15 744.60 782.97 758.28 783.00 772.00 C 783.03 785.72 784.46 798.24 785.00 812.00 C 785.54 825.76 800.65 827.50 812.00 827.00
C 808.84 836.31 796.39 830.62 787.00 831.00 C 777.61 831.38 765.60 830.58 755.93 831.93 C 746.25 833.27 734.72 831.63 725.00 831.00 C 715.28 830.38 703.46 832.23 694.00 830.00
C 701.51 825.30 698.82 819.26 694.70 812.31 C 690.57 805.35 688.32 799.37 685.03 791.98 C 681.73 784.58 678.43 779.85 675.08 771.92 C 671.72 764.00 661.24 765.26 652.00 766.00 C 642.76 766.74 631.97 764.49 622.00 766.00 C 612.03 767.51 604.35 760.18 599.08 773.08 C 593.80 785.97 586.25 801.17 581.22 814.22 C 576.19 827.27 587.60 826.32 596.00 827.00
C 592.24 834.49 577.11 832.16 567.00 831.00 C 556.89 829.84 543.29 834.97 533.33 831.67 C 523.37 828.37 545.54 826.03 551.69 822.69 C 557.85 819.36 563.10 809.42 566.31 802.31 C 569.51 795.19 573.80 786.00 577.31 778.31 C 580.81 770.61 585.28 761.90 588.92 753.92 C 592.56 745.94 596.16 738.11 599.92 729.92 C 603.69 721.74 607.51 714.63 610.98 705.98 C 614.44 697.32 619.33 691.09 622.77 681.77 C 626.21 672.45 630.24 668.53 633.77 657.77 C 637.30 647.01 646.19 649.63 649.31 659.70 C 652.42 669.76 657.83 674.77 661.31 683.70 C 664.78 692.62 669.48 698.65 672.92 707.08 C 676.37 715.50 680.24 722.72 684.31 730.70 C 688.37 738.67 692.32 747.10 695.92 755.08 C 699.53 763.06 704.06 770.56 707.77 778.23 C 711.48 785.90 715.51 794.41 719.31 801.69 C 723.10 808.98 728.15 817.61 735.08 821.92 C 742.02 826.22 756.50 830.24 761.77 821.77 C 767.03 813.30 764.47 800.76 765.00 790.00 C 765.53 779.24 764.69 765.27 765.00 754.00 C 765.31 742.73 764.73 730.43 765.00 719.00 C 765.27 707.57 764.58 695.42 765.00 684.00 C 765.42 672.58 763.31 660.52 767.00 650.00
M 1488.00 654.00 
C 1512.17 653.70 1538.84 653.86 1563.00 654.00
C 1559.23 661.11 1540.27 656.06 1540.22 669.22 C 1540.18 682.39 1539.70 694.37 1540.00 707.00 C 1540.30 719.63 1539.47 732.92 1540.00 745.00 C 1540.53 757.08 1538.88 771.87 1540.00 783.00 C 1541.12 794.13 1537.47 807.75 1545.30 815.70 C 1553.14 823.64 1567.40 819.68 1578.00 821.00 C 1588.60 822.32 1602.80 820.92 1613.02 818.02 C 1623.25 815.13 1622.00 799.53 1631.00 798.00
C 1629.92 807.72 1631.72 817.98 1626.69 826.69 C 1621.66 835.41 1607.78 831.81 1598.00 832.00 C 1588.22 832.19 1574.26 832.72 1564.00 832.00 C 1553.74 831.28 1542.78 830.97 1532.00 831.00 C 1521.22 831.03 1509.50 831.19 1499.00 832.00 C 1488.50 832.81 1475.97 832.27 1466.00 831.00 C 1456.03 829.73 1441.20 834.95 1436.00 827.00
C 1444.37 822.28 1434.71 808.63 1430.08 799.92 C 1425.44 791.22 1421.32 779.07 1415.69 770.31 C 1410.07 761.54 1387.81 766.68 1377.00 766.00 C 1366.19 765.32 1344.88 762.25 1340.22 773.22 C 1335.57 784.20 1332.58 792.64 1327.08 803.08 C 1321.57 813.51 1318.20 831.15 1337.00 827.00
C 1334.79 836.31 1322.54 829.99 1314.00 831.00 C 1305.46 832.01 1294.46 830.15 1285.78 831.78 C 1277.09 833.41 1266.64 831.42 1258.00 831.00 C 1249.36 830.58 1237.37 831.79 1229.00 831.00 C 1220.63 830.21 1208.30 836.24 1206.00 827.00
C 1217.79 828.42 1224.63 822.49 1225.00 811.00 C 1225.36 799.51 1226.38 787.93 1226.00 776.00 C 1225.62 764.07 1226.00 752.06 1226.00 740.00 C 1226.00 727.94 1225.59 717.34 1226.00 705.00 C 1226.41 692.66 1225.29 682.43 1225.22 669.78 C 1225.16 657.13 1209.06 661.35 1205.00 654.00
C 1227.18 653.77 1251.81 653.77 1274.00 654.00
C 1270.01 660.88 1253.31 657.92 1254.02 671.02 C 1254.74 684.13 1253.66 695.34 1254.00 708.00 C 1254.34 720.66 1253.85 732.57 1254.00 745.00 C 1254.15 757.43 1253.93 769.72 1254.00 782.00 C 1254.07 794.28 1253.49 805.41 1255.98 817.02 C 1258.46 828.64 1273.76 826.70 1283.00 826.00 C 1292.25 825.31 1300.03 818.09 1303.77 809.77 C 1307.51 801.45 1312.18 793.32 1315.77 784.77 C 1319.36 776.22 1323.79 768.27 1327.77 759.77 C 1331.75 751.27 1335.02 742.91 1339.31 734.31 C 1343.59 725.70 1347.12 717.28 1351.31 708.31 C 1355.49 699.33 1359.14 692.76 1362.98 682.98 C 1366.81 673.19 1371.32 669.38 1374.92 657.92 C 1378.53 646.47 1388.29 650.14 1391.31 660.70 C 1394.32 671.25 1400.43 675.79 1403.77 685.23 C 1407.11 694.67 1411.40 701.60 1415.77 710.23 C 1420.14 718.86 1423.76 727.57 1427.92 736.08 C 1432.09 744.58 1436.21 752.26 1440.31 760.69 C 1444.40 769.13 1448.02 777.29 1452.31 785.69 C 1456.59 794.10 1459.99 801.68 1465.25 809.75 C 1470.51 817.81 1475.96 823.71 1486.07 825.93 C 1496.19 828.14 1509.49 826.89 1510.33 814.33 C 1511.17 801.77 1512.60 791.72 1512.00 779.00 C 1511.40 766.28 1512.15 754.67 1512.00 742.00 C 1511.85 729.33 1511.79 717.84 1512.00 705.00 C 1512.21 692.16 1511.71 682.00 1511.07 668.93 C 1510.44 655.86 1491.94 662.15 1488.00 654.00
M 508.00 796.00 
C 509.21 781.87 506.54 768.97 507.00 755.00 C 507.46 741.03 505.88 727.98 506.00 714.00 C 506.12 700.02 505.06 687.16 505.00 673.00 C 504.94 658.84 489.34 657.67 478.00 658.00
C 479.40 649.70 489.76 654.05 497.00 654.00 C 504.24 653.95 514.35 653.83 522.00 654.00 C 529.65 654.17 537.56 652.21 545.00 654.00
C 543.43 662.21 525.38 655.71 525.07 667.07 C 524.77 678.43 523.81 688.71 524.00 700.00 C 524.19 711.29 523.95 721.79 524.00 733.00 C 524.05 744.21 524.04 755.85 524.00 767.00 C 523.96 778.15 524.17 788.93 524.00 800.00 C 523.83 811.07 524.82 822.35 523.00 833.00
C 504.96 828.47 491.18 812.11 476.25 800.75 C 461.32 789.39 447.31 776.11 432.75 764.25 C 418.20 752.38 404.99 739.58 390.75 727.25 C 376.52 714.92 362.06 702.65 348.00 690.00
C 348.88 697.83 349.49 705.83 349.00 714.00 C 348.51 722.17 350.02 729.96 350.00 738.00 C 349.98 746.04 349.80 754.58 350.78 762.22 C 351.76 769.86 350.78 779.53 351.00 787.00 C 351.22 794.47 352.76 803.72 352.33 810.67 C 351.90 817.62 357.57 824.14 362.68 825.32 C 367.78 826.50 383.37 826.48 377.91 830.92 C 372.46 835.35 361.72 830.17 355.00 831.00 C 348.28 831.83 336.77 830.86 330.00 831.00 C 323.23 831.14 310.90 835.80 310.00 827.00
C 328.00 830.09 333.44 817.80 332.00 802.00 C 330.56 786.20 332.55 771.01 332.00 755.00 C 331.45 738.99 332.08 723.32 332.00 707.00 C 331.92 690.68 331.63 676.98 332.00 660.00 C 332.37 643.02 348.31 655.46 355.75 663.25 C 363.19 671.05 373.19 678.32 381.25 685.75 C 389.31 693.19 398.01 700.32 406.25 707.75 C 414.49 715.18 423.29 721.97 431.70 729.30 C 440.11 736.63 448.72 744.55 457.25 751.75 C 465.77 758.96 473.76 766.42 482.25 773.75 C 490.74 781.09 499.20 789.10 508.00 796.00
M 1182.00 657.00 
C 1180.34 664.38 1182.57 674.81 1181.00 682.00 C 1179.43 689.19 1183.40 701.52 1174.00 702.00
C 1173.14 693.99 1172.64 685.21 1167.08 678.92 C 1161.53 672.63 1155.63 669.99 1147.78 667.22 C 1139.92 664.46 1130.68 662.93 1122.00 662.00 C 1113.32 661.07 1100.97 660.46 1092.00 661.00 C 1083.03 661.54 1073.16 662.96 1064.99 664.99 C 1056.83 667.03 1050.03 669.97 1043.30 674.30 C 1036.58 678.64 1032.61 682.52 1027.75 688.75 C 1022.88 694.97 1019.28 701.27 1017.07 709.07 C 1014.86 716.88 1013.30 727.93 1013.22 736.22 C 1013.14 744.51 1015.17 754.60 1017.93 762.07 C 1020.69 769.55 1024.22 775.96 1028.77 782.23 C 1033.32 788.50 1038.20 793.02 1044.25 797.75 C 1050.29 802.48 1055.93 806.63 1063.08 809.92 C 1070.22 813.22 1076.87 816.09 1085.02 817.98 C 1093.18 819.86 1102.93 822.09 1112.00 822.00 C 1121.07 821.91 1133.16 822.83 1142.00 821.00 C 1150.84 819.17 1156.60 818.05 1164.08 812.08 C 1171.56 806.11 1171.65 802.84 1175.98 792.98 C 1180.30 783.11 1185.51 797.53 1181.00 805.00 C 1176.50 812.47 1180.41 821.72 1173.25 827.25 C 1166.08 832.77 1156.77 831.57 1148.00 833.00 C 1139.23 834.43 1128.20 834.52 1119.00 835.00 C 1109.80 835.48 1098.34 833.93 1089.33 833.67 C 1080.32 833.41 1071.26 830.68 1062.93 829.07 C 1054.60 827.47 1047.14 824.46 1039.77 821.23 C 1032.41 817.99 1026.23 814.54 1019.92 810.08 C 1013.61 805.62 1009.73 801.40 1004.25 795.75 C 998.77 790.10 995.47 784.44 991.70 777.31 C 987.92 770.17 986.59 761.28 985.00 753.00 C 983.42 744.71 983.95 732.95 985.93 724.93 C 987.91 716.90 989.97 709.02 994.25 702.25 C 998.53 695.49 1001.46 689.77 1007.25 684.25 C 1013.04 678.72 1016.52 674.43 1023.25 670.25 C 1029.97 666.06 1036.25 662.77 1044.03 660.03 C 1051.80 657.28 1059.38 654.56 1068.07 653.07 C 1076.77 651.58 1086.65 650.86 1096.00 650.00 C 1105.35 649.14 1116.66 650.49 1126.00 651.00 C 1135.35 651.50 1145.06 651.92 1154.07 653.93 C 1163.09 655.93 1172.87 655.40 1182.00 657.00
M 288.00 654.00 
C 286.59 662.18 271.38 655.88 269.70 665.70 C 268.01 675.51 267.77 684.71 268.00 695.00 C 268.23 705.29 267.75 715.68 268.00 726.00 C 268.25 736.32 267.56 746.66 268.00 757.00 C 268.44 767.34 267.07 777.64 268.00 788.00 C 268.93 798.36 267.89 805.26 270.00 816.00 C 272.10 826.75 279.63 824.34 290.07 826.93 C 300.52 829.52 285.99 833.88 276.98 831.02 C 267.96 828.17 255.04 833.19 246.00 831.00 C 236.96 828.81 225.29 836.68 220.00 828.00
C 234.46 828.31 240.22 819.72 240.00 806.00 C 239.78 792.28 241.46 778.99 241.00 765.00 C 240.54 751.01 240.99 735.96 241.00 722.00 C 241.01 708.04 240.47 693.77 241.00 680.00 C 241.53 666.23 235.35 655.59 220.00 658.00
C 221.36 649.49 231.64 654.28 239.00 654.00 C 246.36 653.72 256.17 653.81 264.00 654.00 C 271.83 654.19 280.51 652.46 288.00 654.00 Z"/>
</g>
<g fill="#008DE8" fill-opacity="1.00" stroke="None">
<path d="
M 1608.00 157.00 
C 1599.49 136.78 1588.02 119.17 1572.25 102.75 C 1556.48 86.33 1541.05 75.09 1520.75 64.25 C 1500.44 53.42 1478.82 45.14 1455.02 39.98 C 1431.22 34.81 1401.95 30.83 1376.00 30.00 C 1350.05 29.17 1315.21 31.19 1290.22 34.22 C 1265.23 37.26 1240.51 43.84 1218.07 52.07 C 1195.64 60.31 1179.05 70.35 1160.75 84.75 C 1142.45 99.14 1131.13 112.22 1119.31 132.31 C 1107.48 152.39 1101.97 181.93 1103.00 206.00 C 1104.03 230.07 1112.28 254.11 1126.23 272.77 C 1140.18 291.43 1152.69 304.16 1172.92 315.08 C 1193.16 325.99 1215.65 333.70 1237.93 340.07 C 1260.20 346.44 1287.54 353.78 1310.33 357.67 C 1333.11 361.56 1365.03 367.64 1385.99 372.01 C 1406.95 376.38 1439.62 387.76 1430.93 413.93 C 1422.23 440.09 1387.81 435.80 1365.00 438.00 C 1342.19 440.20 1309.28 434.17 1289.23 423.77 C 1269.18 413.37 1255.15 396.92 1248.00 376.00
C 1233.96 378.48 1219.78 380.59 1205.67 382.67 C 1191.56 384.75 1178.09 386.80 1164.00 389.00 C 1149.91 391.21 1136.29 392.90 1122.02 395.02 C 1107.76 397.15 1095.06 399.63 1080.22 401.22 C 1065.38 402.81 1078.60 420.37 1082.69 430.31 C 1086.79 440.24 1093.80 451.58 1100.23 460.77 C 1106.66 469.96 1113.89 478.51 1122.25 486.75 C 1130.60 494.99 1138.54 502.16 1148.25 508.75 C 1157.97 515.33 1167.25 521.50 1178.31 526.70 C 1189.36 531.89 1200.14 536.89 1212.32 540.68 C 1224.51 544.47 1236.80 548.29 1250.00 551.00 C 1263.19 553.71 1277.88 555.50 1291.99 557.01 C 1306.11 558.52 1322.18 559.80 1337.00 560.00 C 1351.82 560.20 1369.58 560.10 1384.00 559.00 C 1398.42 557.90 1414.12 557.03 1427.78 554.78 C 1441.44 552.53 1454.94 549.89 1467.78 546.78 C 1480.61 543.66 1491.90 538.96 1503.78 534.78 C 1515.65 530.59 1525.56 525.00 1536.31 519.31 C 1547.05 513.61 1555.79 507.63 1565.30 500.30 C 1574.82 492.97 1583.00 486.21 1590.75 476.75 C 1598.50 467.29 1604.93 459.53 1610.23 448.23 C 1615.52 436.93 1620.52 425.85 1623.00 413.00 C 1625.48 400.15 1625.36 381.14 1624.00 368.00 C 1622.64 354.86 1619.12 341.44 1613.92 330.08 C 1608.73 318.71 1603.25 309.80 1595.30 300.70 C 1587.36 291.59 1580.66 284.21 1571.25 276.75 C 1561.83 269.29 1552.95 263.60 1542.08 257.92 C 1531.20 252.25 1519.20 248.50 1507.07 244.93 C 1494.95 241.35 1481.76 237.84 1469.02 234.98 C 1456.28 232.11 1442.70 228.99 1429.67 226.33 C 1416.64 223.67 1402.43 221.10 1389.22 218.78 C 1376.01 216.46 1362.12 213.36 1349.00 211.00 C 1335.89 208.64 1323.24 205.78 1311.08 200.92 C 1298.91 196.06 1290.64 187.27 1292.00 174.00 C 1293.36 160.73 1303.09 153.15 1315.78 149.78 C 1328.46 146.40 1345.25 144.17 1359.00 145.00 C 1372.75 145.83 1387.70 147.93 1399.93 152.07 C 1412.15 156.22 1421.27 161.11 1430.75 169.25 C 1440.23 177.39 1445.79 186.38 1451.00 197.00
C 1503.25 183.37 1555.80 170.78 1608.00 157.00 Z"/>
</g>
<g fill="#008DE8" fill-opacity="0.82" stroke="None">
<path d="
M 1592.00 32.00 
C 1585.39 33.95 1571.02 27.67 1570.00 36.00
C 1573.00 36.00 1576.00 36.00 1579.00 36.00
C 1579.19 41.20 1578.75 47.95 1579.00 53.00 C 1579.25 58.05 1576.83 65.55 1584.00 64.00
C 1584.00 54.67 1584.00 45.33 1584.00 36.00
C 1587.25 35.78 1593.63 37.50 1592.00 32.00 Z"/>
</g>
<g fill="#008DE8" fill-opacity="0.80" stroke="None">
<path d="
M 1612.00 56.00 
C 1606.56 48.58 1602.83 39.26 1597.00 32.00
C 1593.50 41.78 1592.21 53.24 1591.00 64.00
C 1600.26 63.83 1594.79 49.38 1599.00 44.00
C 1604.46 50.10 1606.11 61.39 1614.00 64.00
C 1616.99 56.64 1621.69 49.58 1626.00 43.00
C 1627.98 49.74 1624.60 64.26 1634.00 64.00
C 1630.37 53.94 1632.62 39.33 1626.00 32.00
C 1622.51 40.44 1617.19 48.67 1612.00 56.00 Z"/>
</g>
<g fill="#008DE8" fill-opacity="1.00" stroke="None">
<path d="
M 484.00 328.00 
C 511.31 316.92 537.28 306.05 558.75 283.75 C 580.22 261.45 591.16 231.16 593.00 200.00 C 594.84 168.84 586.68 133.04 565.75 109.25 C 544.82 85.45 527.35 71.73 497.22 59.78 C 467.10 47.83 434.46 40.56 399.00 39.00 C 363.54 37.44 319.66 38.06 282.00 38.00 C 244.34 37.94 202.46 38.03 164.00 38.00 C 125.54 37.97 84.68 38.02 46.00 38.00
C 46.00 209.33 46.00 380.67 46.00 552.00
C 109.33 552.00 172.67 552.00 236.00 552.00
C 236.00 486.67 236.00 421.33 236.00 356.00
C 255.67 356.00 275.33 356.00 295.00 356.00
C 324.01 421.57 355.35 486.32 384.00 552.00
C 454.33 552.00 524.67 552.00 595.00 552.00
C 558.38 477.19 521.21 402.62 484.00 328.00
M 236.00 245.00 
C 236.00 212.67 236.00 180.33 236.00 148.00
C 277.53 150.12 328.69 142.26 366.69 155.31 C 404.70 168.35 404.07 222.80 366.31 236.31 C 328.54 249.81 277.75 243.95 236.00 245.00 Z"/>
</g>
<g fill="#008DE8" fill-opacity="1.00" stroke="None">
<path d="
M 1071.00 38.00 
C 925.66 38.00 780.34 38.00 635.00 38.00
C 635.00 79.33 635.00 120.67 635.00 162.00
C 677.67 162.00 720.33 162.00 763.00 162.00
C 763.00 292.00 763.00 422.00 763.00 552.00
C 823.00 552.00 883.00 552.00 943.00 552.00
C 943.00 422.00 943.00 292.00 943.00 162.00
C 985.66 162.00 1028.34 162.00 1071.00 162.00
C 1071.00 120.67 1071.00 79.33 1071.00 38.00 Z"/>
</g>
<g fill="#000000" fill-opacity="0.00" stroke="None">
<path d="
M 236.00 245.00 
C 277.75 243.95 328.54 249.81 366.31 236.31 C 404.07 222.80 404.70 168.35 366.69 155.31 C 328.69 142.26 277.53 150.12 236.00 148.00
C 236.00 180.33 236.00 212.67 236.00 245.00 Z"/>
</g>
<g fill="#008DE8" fill-opacity="0.96" stroke="None">
<path d="
M 186.00 707.00 
C 178.96 709.79 173.51 714.33 165.00 714.00 C 156.50 713.67 146.65 716.30 138.00 715.00 C 129.35 713.71 118.09 716.73 110.01 714.99 C 101.93 713.26 106.50 698.32 106.00 691.00 C 105.50 683.68 105.07 670.41 106.00 663.00 C 106.93 655.59 102.66 641.69 106.75 635.75 C 110.85 629.82 125.28 636.79 132.00 635.00 C 138.72 633.21 153.15 635.91 160.00 635.00 C 166.84 634.10 176.41 638.88 180.69 642.31 C 184.97 645.73 184.71 664.01 190.22 655.22 C 195.73 646.43 188.42 640.24 193.22 630.22 C 198.02 620.20 190.37 619.94 181.67 622.67 C 172.97 625.40 163.01 621.90 154.00 623.00 C 144.99 624.10 135.02 622.31 126.00 623.00 C 116.98 623.69 106.83 622.26 98.00 623.00 C 89.17 623.74 79.04 622.08 71.00 622.00 C 62.96 621.92 50.65 618.89 49.00 627.00
C 65.45 624.36 79.06 632.92 77.00 650.00 C 74.94 667.08 79.05 683.26 78.00 700.00 C 76.95 716.74 78.56 733.61 78.00 750.00 C 77.44 766.39 76.39 783.90 77.00 800.00 C 77.61 816.10 71.84 829.45 54.00 827.00
C 56.88 836.32 71.04 830.26 80.00 831.00 C 88.96 831.74 103.09 830.93 112.00 831.00 C 120.91 831.07 135.12 836.13 138.00 827.00
C 130.46 825.31 120.15 828.25 113.75 823.25 C 107.36 818.25 107.22 809.93 107.00 802.00 C 106.78 794.07 105.95 783.27 106.00 775.00 C 106.05 766.73 105.52 755.03 106.00 747.00 C 106.48 738.97 102.24 726.03 112.00 726.00 C 121.76 725.97 130.29 726.14 140.00 726.00 C 149.71 725.86 156.07 725.82 165.32 728.68 C 174.57 731.54 173.31 736.80 176.68 745.32 C 180.05 753.84 184.49 737.88 183.00 731.00 C 181.52 724.12 187.42 714.29 186.00 707.00 Z"/>
</g>
<g fill="#008DE8" fill-opacity="0.95" stroke="None">
<path d="
M 767.00 650.00 
C 763.31 660.52 765.42 672.58 765.00 684.00 C 764.58 695.42 765.27 707.57 765.00 719.00 C 764.73 730.43 765.31 742.73 765.00 754.00 C 764.69 765.27 765.53 779.24 765.00 790.00 C 764.47 800.76 767.03 813.30 761.77 821.77 C 756.50 830.24 742.02 826.22 735.08 821.92 C 728.15 817.61 723.10 808.98 719.31 801.69 C 715.51 794.41 711.48 785.90 707.77 778.23 C 704.06 770.56 699.53 763.06 695.92 755.08 C 692.32 747.10 688.37 738.67 684.31 730.70 C 680.24 722.72 676.37 715.50 672.92 707.08 C 669.48 698.65 664.78 692.62 661.31 683.70 C 657.83 674.77 652.42 669.76 649.31 659.70 C 646.19 649.63 637.30 647.01 633.77 657.77 C 630.24 668.53 626.21 672.45 622.77 681.77 C 619.33 691.09 614.44 697.32 610.98 705.98 C 607.51 714.63 603.69 721.74 599.92 729.92 C 596.16 738.11 592.56 745.94 588.92 753.92 C 585.28 761.90 580.81 770.61 577.31 778.31 C 573.80 786.00 569.51 795.19 566.31 802.31 C 563.10 809.42 557.85 819.36 551.69 822.69 C 545.54 826.03 523.37 828.37 533.33 831.67 C 543.29 834.97 556.89 829.84 567.00 831.00 C 577.11 832.16 592.24 834.49 596.00 827.00
C 587.60 826.32 576.19 827.27 581.22 814.22 C 586.25 801.17 593.80 785.97 599.08 773.08 C 604.35 760.18 612.03 767.51 622.00 766.00 C 631.97 764.49 642.76 766.74 652.00 766.00 C 661.24 765.26 671.72 764.00 675.08 771.92 C 678.43 779.85 681.73 784.58 685.03 791.98 C 688.32 799.37 690.57 805.35 694.70 812.31 C 698.82 819.26 701.51 825.30 694.00 830.00
C 703.46 832.23 715.28 830.38 725.00 831.00 C 734.72 831.63 746.25 833.27 755.93 831.93 C 765.60 830.58 777.61 831.38 787.00 831.00 C 796.39 830.62 808.84 836.31 812.00 827.00
C 800.65 827.50 785.54 825.76 785.00 812.00 C 784.46 798.24 783.03 785.72 783.00 772.00 C 782.97 758.28 782.15 744.60 782.00 731.00 C 781.85 717.40 780.65 704.67 781.00 691.00
C 789.70 697.75 797.91 705.45 806.25 712.75 C 814.59 720.05 822.93 727.48 831.25 734.75 C 839.57 742.02 847.52 748.83 855.75 756.25 C 863.98 763.67 872.89 770.48 881.25 777.75 C 889.60 785.03 898.40 792.01 906.75 799.25 C 915.11 806.49 923.90 812.52 932.25 819.75 C 940.59 826.98 956.41 840.31 956.00 823.00 C 955.59 805.69 955.66 792.05 956.01 776.01 C 956.36 759.96 957.95 746.72 957.00 731.00 C 956.05 715.28 958.43 699.30 957.00 684.00 C 955.57 668.70 959.04 655.25 977.00 658.00
C 975.38 648.31 962.55 655.77 955.00 654.00 C 947.45 652.23 934.30 656.17 927.00 654.00 C 919.70 651.83 906.41 654.55 914.00 658.00 C 921.59 661.46 931.54 656.30 935.22 664.78 C 938.90 673.25 937.95 679.87 938.00 689.00 C 938.05 698.13 938.11 707.15 939.00 716.00 C 939.89 724.85 938.31 734.15 939.00 743.00 C 939.69 751.85 940.40 760.95 940.00 770.00 C 939.60 779.05 940.34 787.28 941.00 796.00
C 926.03 785.13 912.56 770.99 898.08 758.92 C 883.61 746.85 869.75 733.86 855.25 721.75 C 840.74 709.65 826.92 696.61 812.25 684.75 C 797.57 672.89 784.52 655.80 767.00 650.00
M 667.00 756.00 
C 647.00 756.00 627.00 756.00 607.00 756.00
C 616.37 733.28 625.50 710.23 636.00 688.00
C 647.59 709.56 657.17 733.25 667.00 756.00 Z"/>
</g>
<g fill="#008DE8" fill-opacity="0.95" stroke="None">
<path d="
M 1488.00 654.00 
C 1491.94 662.15 1510.44 655.86 1511.07 668.93 C 1511.71 682.00 1512.21 692.16 1512.00 705.00 C 1511.79 717.84 1511.85 729.33 1512.00 742.00 C 1512.15 754.67 1511.40 766.28 1512.00 779.00 C 1512.60 791.72 1511.17 801.77 1510.33 814.33 C 1509.49 826.89 1496.19 828.14 1486.07 825.93 C 1475.96 823.71 1470.51 817.81 1465.25 809.75 C 1459.99 801.68 1456.59 794.10 1452.31 785.69 C 1448.02 777.29 1444.40 769.13 1440.31 760.69 C 1436.21 752.26 1432.09 744.58 1427.92 736.08 C 1423.76 727.57 1420.14 718.86 1415.77 710.23 C 1411.40 701.60 1407.11 694.67 1403.77 685.23 C 1400.43 675.79 1394.32 671.25 1391.31 660.70 C 1388.29 650.14 1378.53 646.47 1374.92 657.92 C 1371.32 669.38 1366.81 673.19 1362.98 682.98 C 1359.14 692.76 1355.49 699.33 1351.31 708.31 C 1347.12 717.28 1343.59 725.70 1339.31 734.31 C 1335.02 742.91 1331.75 751.27 1327.77 759.77 C 1323.79 768.27 1319.36 776.22 1315.77 784.77 C 1312.18 793.32 1307.51 801.45 1303.77 809.77 C 1300.03 818.09 1292.25 825.31 1283.00 826.00 C 1273.76 826.70 1258.46 828.64 1255.98 817.02 C 1253.49 805.41 1254.07 794.28 1254.00 782.00 C 1253.93 769.72 1254.15 757.43 1254.00 745.00 C 1253.85 732.57 1254.34 720.66 1254.00 708.00 C 1253.66 695.34 1254.74 684.13 1254.02 671.02 C 1253.31 657.92 1270.01 660.88 1274.00 654.00
C 1251.81 653.77 1227.18 653.77 1205.00 654.00
C 1209.06 661.35 1225.16 657.13 1225.22 669.78 C 1225.29 682.43 1226.41 692.66 1226.00 705.00 C 1225.59 717.34 1226.00 727.94 1226.00 740.00 C 1226.00 752.06 1225.62 764.07 1226.00 776.00 C 1226.38 787.93 1225.36 799.51 1225.00 811.00 C 1224.63 822.49 1217.79 828.42 1206.00 827.00
C 1208.30 836.24 1220.63 830.21 1229.00 831.00 C 1237.37 831.79 1249.36 830.58 1258.00 831.00 C 1266.64 831.42 1277.09 833.41 1285.78 831.78 C 1294.46 830.15 1305.46 832.01 1314.00 831.00 C 1322.54 829.99 1334.79 836.31 1337.00 827.00
C 1318.20 831.15 1321.57 813.51 1327.08 803.08 C 1332.58 792.64 1335.57 784.20 1340.22 773.22 C 1344.88 762.25 1366.19 765.32 1377.00 766.00 C 1387.81 766.68 1410.07 761.54 1415.69 770.31 C 1421.32 779.07 1425.44 791.22 1430.08 799.92 C 1434.71 808.63 1444.37 822.28 1436.00 827.00
C 1441.20 834.95 1456.03 829.73 1466.00 831.00 C 1475.97 832.27 1488.50 832.81 1499.00 832.00 C 1509.50 831.19 1521.22 831.03 1532.00 831.00 C 1542.78 830.97 1553.74 831.28 1564.00 832.00 C 1574.26 832.72 1588.22 832.19 1598.00 832.00 C 1607.78 831.81 1621.66 835.41 1626.69 826.69 C 1631.72 817.98 1629.92 807.72 1631.00 798.00
C 1622.00 799.53 1623.25 815.13 1613.02 818.02 C 1602.80 820.92 1588.60 822.32 1578.00 821.00 C 1567.40 819.68 1553.14 823.64 1545.30 815.70 C 1537.47 807.75 1541.12 794.13 1540.00 783.00 C 1538.88 771.87 1540.53 757.08 1540.00 745.00 C 1539.47 732.92 1540.30 719.63 1540.00 707.00 C 1539.70 694.37 1540.18 682.39 1540.22 669.22 C 1540.27 656.06 1559.23 661.11 1563.00 654.00
C 1538.84 653.86 1512.17 653.70 1488.00 654.00
M 1378.00 688.00 
C 1388.12 710.64 1399.14 732.97 1408.00 756.00
C 1388.34 756.00 1368.66 756.00 1349.00 756.00
C 1357.16 733.05 1366.67 709.36 1378.00 688.00 Z"/>
</g>
<g fill="#008DE8" fill-opacity="0.95" stroke="None">
<path d="
M 508.00 796.00 
C 499.20 789.10 490.74 781.09 482.25 773.75 C 473.76 766.42 465.77 758.96 457.25 751.75 C 448.72 744.55 440.11 736.63 431.70 729.30 C 423.29 721.97 414.49 715.18 406.25 707.75 C 398.01 700.32 389.31 693.19 381.25 685.75 C 373.19 678.32 363.19 671.05 355.75 663.25 C 348.31 655.46 332.37 643.02 332.00 660.00 C 331.63 676.98 331.92 690.68 332.00 707.00 C 332.08 723.32 331.45 738.99 332.00 755.00 C 332.55 771.01 330.56 786.20 332.00 802.00 C 333.44 817.80 328.00 830.09 310.00 827.00
C 310.90 835.80 323.23 831.14 330.00 831.00 C 336.77 830.86 348.28 831.83 355.00 831.00 C 361.72 830.17 372.46 835.35 377.91 830.92 C 383.37 826.48 367.78 826.50 362.68 825.32 C 357.57 824.14 351.90 817.62 352.33 810.67 C 352.76 803.72 351.22 794.47 351.00 787.00 C 350.78 779.53 351.76 769.86 350.78 762.22 C 349.80 754.58 349.98 746.04 350.00 738.00 C 350.02 729.96 348.51 722.17 349.00 714.00 C 349.49 705.83 348.88 697.83 348.00 690.00
C 362.06 702.65 376.52 714.92 390.75 727.25 C 404.99 739.58 418.20 752.38 432.75 764.25 C 447.31 776.11 461.32 789.39 476.25 800.75 C 491.18 812.11 504.96 828.47 523.00 833.00
C 524.82 822.35 523.83 811.07 524.00 800.00 C 524.17 788.93 523.96 778.15 524.00 767.00 C 524.04 755.85 524.05 744.21 524.00 733.00 C 523.95 721.79 524.19 711.29 524.00 700.00 C 523.81 688.71 524.77 678.43 525.07 667.07 C 525.38 655.71 543.43 662.21 545.00 654.00
C 537.56 652.21 529.65 654.17 522.00 654.00 C 514.35 653.83 504.24 653.95 497.00 654.00 C 489.76 654.05 479.40 649.70 478.00 658.00
C 489.34 657.67 504.94 658.84 505.00 673.00 C 505.06 687.16 506.12 700.02 506.00 714.00 C 505.88 727.98 507.46 741.03 507.00 755.00 C 506.54 768.97 509.21 781.87 508.00 796.00 Z"/>
</g>
<g fill="#008DE8" fill-opacity="0.95" stroke="None">
<path d="
M 1182.00 657.00 
C 1172.87 655.40 1163.09 655.93 1154.07 653.93 C 1145.06 651.92 1135.35 651.50 1126.00 651.00 C 1116.66 650.49 1105.35 649.14 1096.00 650.00 C 1086.65 650.86 1076.77 651.58 1068.07 653.07 C 1059.38 654.56 1051.80 657.28 1044.03 660.03 C 1036.25 662.77 1029.97 666.06 1023.25 670.25 C 1016.52 674.43 1013.04 678.72 1007.25 684.25 C 1001.46 689.77 998.53 695.49 994.25 702.25 C 989.97 709.02 987.91 716.90 985.93 724.93 C 983.95 732.95 983.42 744.71 985.00 753.00 C 986.59 761.28 987.92 770.17 991.70 777.31 C 995.47 784.44 998.77 790.10 1004.25 795.75 C 1009.73 801.40 1013.61 805.62 1019.92 810.08 C 1026.23 814.54 1032.41 817.99 1039.77 821.23 C 1047.14 824.46 1054.60 827.47 1062.93 829.07 C 1071.26 830.68 1080.32 833.41 1089.33 833.67 C 1098.34 833.93 1109.80 835.48 1119.00 835.00 C 1128.20 834.52 1139.23 834.43 1148.00 833.00 C 1156.77 831.57 1166.08 832.77 1173.25 827.25 C 1180.41 821.72 1176.50 812.47 1181.00 805.00 C 1185.51 797.53 1180.30 783.11 1175.98 792.98 C 1171.65 802.84 1171.56 806.11 1164.08 812.08 C 1156.60 818.05 1150.84 819.17 1142.00 821.00 C 1133.16 822.83 1121.07 821.91 1112.00 822.00 C 1102.93 822.09 1093.18 819.86 1085.02 817.98 C 1076.87 816.09 1070.22 813.22 1063.08 809.92 C 1055.93 806.63 1050.29 802.48 1044.25 797.75 C 1038.20 793.02 1033.32 788.50 1028.77 782.23 C 1024.22 775.96 1020.69 769.55 1017.93 762.07 C 1015.17 754.60 1013.14 744.51 1013.22 736.22 C 1013.30 727.93 1014.86 716.88 1017.07 709.07 C 1019.28 701.27 1022.88 694.97 1027.75 688.75 C 1032.61 682.52 1036.58 678.64 1043.30 674.30 C 1050.03 669.97 1056.83 667.03 1064.99 664.99 C 1073.16 662.96 1083.03 661.54 1092.00 661.00 C 1100.97 660.46 1113.32 661.07 1122.00 662.00 C 1130.68 662.93 1139.92 664.46 1147.78 667.22 C 1155.63 669.99 1161.53 672.63 1167.08 678.92 C 1172.64 685.21 1173.14 693.99 1174.00 702.00
C 1183.40 701.52 1179.43 689.19 1181.00 682.00 C 1182.57 674.81 1180.34 664.38 1182.00 657.00 Z"/>
</g>
<g fill="#008DE8" fill-opacity="0.97" stroke="None">
<path d="
M 288.00 654.00 
C 280.51 652.46 271.83 654.19 264.00 654.00 C 256.17 653.81 246.36 653.72 239.00 654.00 C 231.64 654.28 221.36 649.49 220.00 658.00
C 235.35 655.59 241.53 666.23 241.00 680.00 C 240.47 693.77 241.01 708.04 241.00 722.00 C 240.99 735.96 240.54 751.01 241.00 765.00 C 241.46 778.99 239.78 792.28 240.00 806.00 C 240.22 819.72 234.46 828.31 220.00 828.00
C 225.29 836.68 236.96 828.81 246.00 831.00 C 255.04 833.19 267.96 828.17 276.98 831.02 C 285.99 833.88 300.52 829.52 290.07 826.93 C 279.63 824.34 272.10 826.75 270.00 816.00 C 267.89 805.26 268.93 798.36 268.00 788.00 C 267.07 777.64 268.44 767.34 268.00 757.00 C 267.56 746.66 268.25 736.32 268.00 726.00 C 267.75 715.68 268.23 705.29 268.00 695.00 C 267.77 684.71 268.01 675.51 269.70 665.70 C 271.38 655.88 286.59 662.18 288.00 654.00 Z"/>
</g>
<g fill="#000000" fill-opacity="0.00" stroke="None">
<path d="
M 667.00 756.00 
C 657.17 733.25 647.59 709.56 636.00 688.00
C 625.50 710.23 616.37 733.28 607.00 756.00
C 627.00 756.00 647.00 756.00 667.00 756.00 Z"/>
</g>
<g fill="#000000" fill-opacity="0.00" stroke="None">
<path d="
M 1378.00 688.00 
C 1366.67 709.36 1357.16 733.05 1349.00 756.00
C 1368.66 756.00 1388.34 756.00 1408.00 756.00
C 1399.14 732.97 1388.12 710.64 1378.00 688.00 Z"/>
</g>
</svg>